<svg xmlns="http://www.w3.org/2000/svg" width="24" height="24" viewBox="0 0 24 24" fill="none" stroke="#FFFFFF" stroke-width="2" stroke-linecap="round" stroke-linejoin="round">
    <circle cx="13.5" cy="6.5" r=".5" fill="#FFFFFF"></circle>
    <circle cx="17.5" cy="10.5" r=".5" fill="#FFFFFF"></circle>
    <circle cx="8.5" cy="7.5" r=".5" fill="#FFFFFF"></circle>
    <circle cx="6.5" cy="12.5" r=".5" fill="#FFFFFF"></circle>
    <path d="M12 2C6.5 2 2 6.5 2 12s4.5 10 10 10c.9 0 1.6-.5 2-1.2.4.7 1.1 1.2 2 1.2 2.8 0 5-2.2 5-5 0-1.1-.9-2-2-2h-1c-1.1 0-2-.9-2-2V7c0-2.8-2.2-5-5-5z"></path>
</svg>
